<svg width="449" height="338" viewBox="0 0 449 338" fill="none" xmlns="http://www.w3.org/2000/svg">
<path d="M42.954 17.3823C34.2157 17.3823 27.106 24.4878 27.106 33.2183C27.106 41.9527 34.2154 49.0543 42.954 49.0543C51.6923 49.0543 58.802 41.9488 58.802 33.2183C58.802 24.4839 51.6926 17.3823 42.954 17.3823ZM42.954 37.8553C40.3915 37.8553 38.3056 35.7733 38.3056 33.2186C38.3056 30.66 40.3915 28.5858 42.954 28.5858C45.5165 28.5858 47.6024 30.6639 47.6024 33.2186C47.6024 35.7733 45.5165 37.8553 42.954 37.8553Z" fill="black"/>
<path d="M83.004 17.3823C74.2657 17.3823 67.156 24.4878 67.156 33.2183C67.156 41.9527 74.2654 49.0543 83.004 49.0543C91.7423 49.0543 98.852 41.9488 98.852 33.2183C98.852 24.4839 91.7426 17.3823 83.004 17.3823ZM83.004 37.8553C80.4415 37.8553 78.3556 35.7733 78.3556 33.2186C78.3556 30.66 80.4415 28.5858 83.004 28.5858C85.5665 28.5858 87.6524 30.6639 87.6524 33.2186C87.6524 35.7733 85.5665 37.8553 83.004 37.8553Z" fill="black"/>
<path d="M123.044 17.3823C114.306 17.3823 107.196 24.4878 107.196 33.2183C107.196 41.9527 114.305 49.0543 123.044 49.0543C131.782 49.0543 138.892 41.9488 138.892 33.2183C138.892 24.4839 131.783 17.3823 123.044 17.3823ZM123.044 37.8553C120.482 37.8553 118.396 35.7733 118.396 33.2186C118.396 30.66 120.482 28.5858 123.044 28.5858C125.607 28.5858 127.692 30.6639 127.692 33.2186C127.692 35.7733 125.607 37.8553 123.044 37.8553Z" fill="black"/>
<path d="M442.394 0.00230408H408.906C407.254 0.00230408 405.683 0.732777 404.621 1.99451L361.781 52.8965C360.378 54.5645 360.07 56.8926 360.988 58.8653C361.91 60.8419 363.89 62.1075 366.07 62.1075H408.976L342.999 116.995C341.186 118.502 340.514 120.983 341.315 123.202C342.116 125.42 344.221 126.897 346.581 126.897H387.507L328.843 168.78L347.566 147.76C349.039 146.115 349.402 143.756 348.499 141.744C347.597 139.729 345.597 138.432 343.39 138.432H301.749L311.788 128.393C311.792 128.389 311.792 128.389 311.792 128.385L353.839 86.3969C355.441 84.7992 355.921 82.3891 355.058 80.2953C354.195 78.2015 352.152 76.8344 349.886 76.8344H294.48L301.812 63.5844L332.066 8.90439L332.402 8.2872C333.351 6.5528 333.312 4.4434 332.308 2.7442C331.3 1.045 329.468 0.0019989 327.492 0.0019989H5.6016C2.5078 0.0019989 0 2.5098 0 5.6036V331.404C0 334.497 2.5078 337.005 5.6016 337.005H442.402C445.495 337.005 448.003 334.497 448.003 331.404L447.999 95.7036V5.6016C447.999 2.5078 445.491 0 442.398 0L442.394 0.00230408ZM411.515 11.2013H436.796V55.2713H429.937C429.886 55.0486 429.823 54.8221 429.741 54.6033C428.941 52.3845 426.835 50.9041 424.476 50.9041H378.101L411.515 11.2013ZM291.785 116.321C292.289 116.751 292.793 117.177 293.289 117.614C295.547 119.614 297.726 121.7 299.793 123.884C299.898 123.997 300 124.118 300.105 124.231L291.773 132.563C291.73 132.517 291.66 132.45 291.613 132.403C291.281 132.048 290.914 131.673 290.445 131.224C289.015 129.669 287.527 128.239 286.035 126.935C285.953 126.864 285.871 126.794 285.785 126.727C285.75 126.696 285.719 126.669 285.679 126.642C284.062 125.208 282.402 123.884 280.863 122.669C280.558 122.411 280.23 122.173 279.5 121.649C277.754 120.368 276 119.142 274.25 117.977C274.246 117.974 274.242 117.974 274.242 117.974C274.219 117.958 274.199 117.942 274.176 117.927C272.14 116.618 270.051 115.407 267.929 114.266C254.484 107.009 239.441 103.184 223.995 103.184C208.549 103.184 193.507 107.009 180.057 114.266C177.936 115.407 175.85 116.618 173.811 117.927C162.541 125.181 152.834 134.865 145.76 145.915C145.756 145.919 145.753 145.926 145.749 145.93L145.745 145.934V145.938C137.444 158.793 132.538 173.469 131.339 188.75C131.323 188.973 131.284 189.192 131.268 189.414C131.241 189.793 131.249 190.172 131.229 190.551C131.12 192.391 131.034 194.234 131.034 196.086V196.098V196.109C131.034 214.035 136.151 231.376 145.796 246.208C152.855 257.325 162.546 267.035 173.816 274.289C173.82 274.293 173.824 274.301 173.828 274.301C181.91 279.516 190.707 283.356 199.894 285.824C207.714 287.934 215.8 289.066 223.996 289.066C232.192 289.066 240.277 287.934 248.098 285.824C257.285 283.355 266.086 279.52 274.164 274.301C274.168 274.297 274.172 274.289 274.175 274.289C285.445 267.036 295.136 257.324 302.163 246.258C302.171 246.247 302.179 246.235 302.187 246.219C302.191 246.216 302.195 246.212 302.199 246.204C302.199 246.2 302.203 246.196 302.203 246.196C311.855 231.325 316.961 214.008 316.961 196.11C316.961 195.258 316.953 194.407 316.902 194.149C316.902 193.301 316.894 192.524 316.847 192.247C316.847 191.887 316.839 191.528 316.824 191.169L327.871 183.251C327.929 183.704 328.039 184.169 328.09 184.622C328.16 185.231 328.207 185.844 328.265 186.454C328.57 189.661 328.773 192.864 328.773 196.106C328.773 217.903 322.101 238.821 309.464 256.61C305.952 261.602 302.222 266.024 297.995 270.204C295.944 272.306 293.769 274.325 291.472 276.247C289.273 278.134 286.933 279.938 284.487 281.638C266.737 294.197 245.819 300.829 223.995 300.829C202.171 300.829 181.253 294.196 163.464 281.618C161.058 279.942 158.718 278.137 156.468 276.208C154.222 274.325 152.042 272.305 149.917 270.133C145.765 266.028 142.035 261.606 138.511 256.594C125.89 238.824 119.218 217.906 119.218 196.11C119.218 174.286 125.89 153.372 138.527 135.602C145.32 125.946 153.73 117.52 163.492 110.586C181.328 98.0243 202.254 91.3873 223.996 91.3873C245.738 91.3873 266.664 98.024 284.484 110.571C287.02 112.372 289.434 114.313 291.785 116.321L291.785 116.321ZM303.262 176.055C303.485 176.938 303.727 177.899 303.887 178.739L304.074 179.758L287.285 198.719C285.395 200.856 285.41 204.067 287.317 206.184C287.832 206.754 288.453 207.172 289.118 207.481C289.336 207.583 289.567 207.61 289.793 207.68C290.262 207.829 290.723 207.954 291.211 207.977C291.301 207.981 291.387 208.032 291.477 208.032C291.778 208.032 292.075 207.942 292.375 207.895C292.586 207.86 292.789 207.856 292.996 207.801C293.606 207.63 294.196 207.376 294.735 206.989L305.645 199.176C305.633 199.473 305.629 199.77 305.614 200.063C305.485 202.758 305.258 205.442 304.867 208.09C304.824 208.376 304.758 208.653 304.715 208.934C304.328 211.372 303.813 213.778 303.207 216.161C303.059 216.747 302.918 217.337 302.758 217.919C302.059 220.438 301.246 222.922 300.301 225.36C300.106 225.868 299.879 226.364 299.672 226.868C298.797 228.997 297.832 231.09 296.778 233.145C296.614 233.465 296.461 233.79 296.289 234.11L258.289 196.157L296.336 158.063C296.516 158.399 296.692 158.696 296.872 159.051C297.481 160.223 298.04 161.442 298.625 162.786C299.141 163.868 299.602 164.946 299.977 165.852C300.282 166.696 300.645 167.661 300.938 168.391C301.809 170.789 302.52 173.118 303.122 175.501C303.125 175.512 303.258 176.051 303.262 176.055L303.262 176.055ZM186.872 268.848C186.575 268.696 186.274 268.555 185.977 268.399L213.192 241.184L223.993 230.403L234.79 241.188L262.005 268.403C261.712 268.559 261.408 268.7 261.115 268.852C238.228 280.579 209.76 280.579 186.873 268.848L186.872 268.848ZM160.88 247.903C160.411 247.333 159.97 246.747 159.517 246.165C158.931 245.407 158.407 244.61 157.849 243.837L183.513 218.204L201.626 200.134C202.68 199.083 203.27 197.661 203.27 196.173C203.27 196.169 203.266 196.161 203.266 196.157V196.153C203.266 194.665 202.676 193.243 201.626 192.193L157.794 148.361C158.348 147.595 158.872 146.806 159.454 146.06C159.923 145.458 160.384 144.853 160.872 144.263C162.516 142.271 164.235 140.329 166.071 138.493C166.098 138.466 166.122 138.439 166.149 138.411C168.016 136.552 170.001 134.806 172.044 133.122C172.637 132.634 173.255 132.169 173.86 131.696C174.634 131.095 175.45 130.548 176.243 129.974L220.028 173.759C222.215 175.946 225.758 175.946 227.946 173.759L271.794 129.911C272.052 130.094 272.341 130.294 272.579 130.469C272.876 130.719 273.196 130.95 273.759 131.348C275.298 132.567 276.841 133.786 278.329 135.114C278.431 135.204 278.536 135.294 278.642 135.376C278.669 135.399 278.696 135.419 278.724 135.442C279.896 136.469 281.071 137.598 282.349 138.981L282.829 139.454C283.071 139.688 283.31 139.903 283.81 140.493C283.821 140.505 283.833 140.52 283.845 140.532C283.716 140.692 283.638 140.883 283.528 141.055C283.411 141.239 283.286 141.419 283.192 141.614C283.056 141.899 282.966 142.192 282.88 142.493C282.821 142.692 282.747 142.883 282.712 143.087C282.653 143.423 282.657 143.762 282.661 144.102C282.665 144.282 282.638 144.458 282.657 144.641C282.712 145.145 282.833 145.645 283.028 146.13C283.036 146.145 283.036 146.165 283.04 146.18C283.907 148.274 285.95 149.637 288.212 149.637H288.923L246.396 192.215C245.345 193.266 244.759 194.688 244.759 196.176C244.759 197.661 245.349 199.086 246.404 200.137L290.142 243.825C289.587 244.599 289.064 245.392 288.478 246.145C288.009 246.751 287.548 247.364 287.06 247.958C285.415 249.958 283.7 251.911 281.86 253.759C281.841 253.778 281.821 253.802 281.802 253.821C279.938 255.685 277.954 257.435 275.915 259.118C275.321 259.606 274.708 260.071 274.103 260.544C273.329 261.146 272.517 261.688 271.724 262.263L241.744 232.318L227.943 218.517C225.755 216.329 222.212 216.329 220.025 218.517L206.224 232.318L176.244 262.263C175.451 261.688 174.638 261.146 173.865 260.544C173.255 260.071 172.642 259.606 172.048 259.114C167.97 255.731 164.22 251.974 160.88 247.903L160.88 247.903ZM261.47 123.543C261.654 123.637 261.841 123.723 262.021 123.821L223.998 161.844L185.975 123.821C186.205 123.7 186.44 123.59 186.67 123.473C209.705 111.586 238.459 111.602 261.471 123.543H261.47ZM151.7 234.123C151.634 233.998 151.571 233.865 151.505 233.74C150.063 230.998 148.766 228.186 147.657 225.303C147.634 225.244 147.606 225.186 147.583 225.127C146.501 222.303 145.618 219.408 144.856 216.479C144.747 216.049 144.63 215.623 144.528 215.194C143.844 212.358 143.309 209.479 142.934 206.569C142.876 206.108 142.837 205.647 142.786 205.186C142.45 202.182 142.235 199.155 142.235 196.1V196.061C142.235 193.041 142.45 190.049 142.778 187.076C142.833 186.58 142.872 186.084 142.938 185.592C143.309 182.709 143.837 179.862 144.512 177.049C144.622 176.592 144.743 176.143 144.86 175.686C145.614 172.768 146.489 169.885 147.559 167.072C147.579 167.022 147.602 166.971 147.622 166.916C148.735 164.01 150.036 161.17 151.485 158.401C151.544 158.287 151.594 158.174 151.657 158.061L189.743 196.151L176.001 209.878L151.7 234.123ZM330.89 149.631L313.12 169.588C313.081 169.459 313.03 169.323 312.991 169.198C312.522 167.639 312.011 166.061 311.409 164.405C311.097 163.631 310.788 162.799 310.44 161.85C309.897 160.514 309.351 159.244 308.823 158.147C308.21 156.741 307.538 155.276 306.85 153.959C306.241 152.741 305.569 151.522 304.901 150.358C304.761 150.116 304.616 149.869 304.475 149.631L330.89 149.631ZM11.2 11.2013H317.99L293.607 55.2713H11.197L11.2 11.2013ZM436.8 325.811H11.2V66.4713H287.41L280.078 79.7213C279.117 81.4557 279.148 83.569 280.156 85.276C281.164 86.9869 282.996 88.0338 284.98 88.0338H336.351L308.054 116.292C307.957 116.186 307.843 116.096 307.742 115.995C305.484 113.62 303.097 111.358 300.632 109.175C300.062 108.671 299.48 108.175 298.898 107.682C296.332 105.503 293.703 103.389 290.941 101.432C271.214 87.5344 248.062 80.1904 223.996 80.1904C199.93 80.1904 176.777 87.5342 157.027 101.44C146.203 109.132 136.898 118.456 129.386 129.135C115.409 148.791 108.023 171.947 108.023 196.112C108.023 220.249 115.41 243.405 129.371 263.061C133.273 268.604 137.422 273.522 141.98 278.026C144.293 280.394 146.746 282.671 149.23 284.753C151.718 286.882 154.355 288.921 157.039 290.784C176.687 304.686 199.84 312.03 223.996 312.03C248.152 312.03 271.305 304.686 290.922 290.811C293.64 288.925 296.277 286.885 298.715 284.796C301.25 282.675 303.707 280.397 305.941 278.1C310.574 273.522 314.722 268.604 318.613 263.08C332.59 243.404 339.972 220.244 339.972 196.111C339.972 193.029 339.812 189.986 339.566 186.943C339.523 186.428 339.492 185.908 339.445 185.393C339.168 182.478 338.769 179.564 338.261 176.635C338.218 176.385 338.207 176.139 338.16 175.893L408.246 125.854C410.226 124.436 411.066 121.904 410.324 119.588C409.582 117.268 407.425 115.697 404.992 115.697H362.074L421.242 66.4743L436.797 66.4665L436.8 325.811Z" fill="black"/>
</svg>
