<svg width="449" height="402" viewBox="0 0 449 402" fill="none" xmlns="http://www.w3.org/2000/svg">
<path d="M166.828 279.131H48.0376C44.9438 279.131 42.436 281.639 42.436 284.733C42.436 287.827 44.9438 290.335 48.0376 290.335H166.828C169.921 290.335 172.429 287.827 172.429 284.733C172.425 281.639 169.921 279.131 166.828 279.131Z" fill="black"/>
<path d="M5.61771 290.331H28.5977C31.6915 290.331 34.1993 287.824 34.1993 284.73C34.1993 281.636 31.6915 279.128 28.5977 279.128H5.61771C2.52391 279.128 0.0161133 281.636 0.0161133 284.73C0.0161133 287.824 2.52391 290.331 5.61771 290.331Z" fill="black"/>
<path d="M166.828 321.181H5.61771C2.52391 321.181 0.0161133 323.689 0.0161133 326.783C0.0161133 329.877 2.52391 332.385 5.61771 332.385H166.828C169.922 332.385 172.429 329.877 172.429 326.783C172.425 323.689 169.922 321.181 166.828 321.181Z" fill="black"/>
<path d="M166.828 363.211H141.375C138.281 363.211 135.773 365.719 135.773 368.813C135.773 371.907 138.281 374.415 141.375 374.415H166.828C169.922 374.415 172.43 371.907 172.43 368.813C172.426 365.719 169.922 363.211 166.828 363.211Z" fill="black"/>
<path d="M121.928 363.211H5.61771C2.52391 363.211 0.0161133 365.719 0.0161133 368.813C0.0161133 371.907 2.52391 374.415 5.61771 374.415H121.928C125.022 374.415 127.529 371.907 127.529 368.813C127.525 365.719 125.022 363.211 121.928 363.211Z" fill="black"/>
<path d="M442.408 0.505371H139.368C139.348 0.505371 139.333 0.51709 139.313 0.51709C131.836 -0.17041 124.2 -0.17822 116.645 0.528809C97.0901 2.20851 78.6331 8.31791 62.0981 18.5058C60.852 19.1582 59.7973 19.8144 58.684 20.537C58.5199 20.6386 58.3598 20.7519 58.2074 20.869C42.7504 30.8417 29.8525 43.869 19.9775 59.428C19.2235 60.5257 18.54 61.6272 18.0752 62.5218C8.08295 79.0728 1.97016 98.1628 0.387157 117.745C-1.09724 137.104 1.69185 155.995 8.66835 173.847C11.7778 182.007 15.8089 189.894 20.6483 197.265C44.9804 234.613 86.3673 255.57 128.788 255.566C145.933 255.566 163.237 252.089 179.659 244.937L199.155 274.953C196.308 278.676 194.48 283.105 193.929 287.781C193.097 294.058 194.577 300.426 198.062 305.652L258.871 399.097C259.945 400.745 261.738 401.644 263.57 401.644C264.609 401.644 265.664 401.355 266.601 400.745L322.406 364.71C323.656 363.902 324.535 362.632 324.843 361.175C325.156 359.722 324.871 358.198 324.058 356.952L283.148 294.116H442.418C445.512 294.116 448.02 291.609 448.02 288.515V6.0948C448.016 3.0128 445.508 0.504997 442.414 0.504997L442.408 0.505371ZM436.81 11.7044V48.3764H229.02C228.532 47.7592 227.993 47.142 227.485 46.5209C227.086 46.0404 226.704 45.5599 226.29 45.0795C224.981 43.5443 223.622 42.0092 222.18 40.4818C220.247 38.4271 218.192 36.3763 216.126 34.4857C213.629 32.1419 211.036 29.9076 208.356 27.7826C207.672 27.2396 206.934 26.767 206.243 26.2396C204.215 24.6966 202.184 23.1537 200.063 21.7396C198.95 20.9935 197.77 20.349 196.629 19.638C194.86 18.5364 193.114 17.3919 191.29 16.3763C190.122 15.7239 188.899 15.1771 187.712 14.5638C185.848 13.5989 184.004 12.599 182.094 11.724L182.047 11.7005L436.81 11.7044ZM30.0201 191.134C25.6178 184.423 21.9537 177.267 19.1181 169.814C12.7431 153.498 10.2001 136.267 11.5517 118.623C12.9931 100.779 18.5634 83.3814 27.8177 68.0334C28.2318 67.2482 28.6966 66.51 29.3177 65.6037C38.4818 51.1697 50.3217 39.2367 64.5127 30.1307C64.6533 30.0408 64.7861 29.9471 64.915 29.8455C65.6963 29.3416 66.458 28.865 67.6416 28.2283C82.9966 18.7791 99.8096 13.2123 117.646 11.6813C124.634 11.029 131.666 11.0212 138.544 11.6813C139.032 11.7243 139.809 11.7321 140.262 11.7907C140.696 11.8415 141.134 11.8962 141.333 11.904C166.442 14.6813 190.282 25.603 208.513 42.709C210.423 44.4551 212.274 46.3067 214.021 48.166C216.915 51.2363 219.521 54.3183 221.853 57.4355C223.47 59.498 225.063 61.7324 226.853 64.4472C232.829 73.623 237.341 83.3692 240.451 93.3962C240.466 93.4391 240.486 93.4821 240.497 93.529C253.97 137.177 240.708 186.158 204.224 216.799C200.291 220.049 196.228 223.022 192.06 225.697C191.51 226.065 190.865 226.486 190.014 226.955C186.189 229.283 182.697 231.182 179.338 232.764C179.201 232.826 178.736 233.065 178.607 233.139L178.13 233.393C125.493 258.084 61.8105 239.924 30.0205 191.131L30.0201 191.134ZM195.58 236.665C196.479 236.185 197.447 235.568 198.193 235.068C200.736 233.435 203.264 231.65 205.771 229.782C205.998 229.615 206.236 229.474 206.463 229.302L224.361 256.864L214.584 263.157L207.716 267.575L189.806 239.997C191.713 238.97 193.635 237.856 195.58 236.665L195.58 236.665ZM265.209 388.315L207.412 299.495C205.4 296.48 204.557 292.843 205.037 289.179C205.471 285.511 207.213 282.148 210.021 279.625C210.639 279.05 211.303 278.562 211.807 278.242C211.986 278.152 212.166 278.05 212.334 277.937L232.232 265.117C232.951 264.652 233.541 264.352 234.076 264.141C234.236 264.07 234.377 263.996 234.556 263.926C235.517 263.504 236.498 263.203 237.486 262.98C237.822 262.906 238.162 262.883 238.498 262.828C239.154 262.727 239.81 262.641 240.463 262.625C240.795 262.617 241.119 262.641 241.451 262.652C242.345 262.688 243.232 262.793 244.099 262.98C244.365 263.039 244.634 263.074 244.9 263.145C245.978 263.438 247.021 263.836 248.013 264.355C248.212 264.461 248.396 264.598 248.591 264.711C249.392 265.176 250.154 265.723 250.873 266.336C251.115 266.543 251.353 266.746 251.584 266.969C252.419 267.781 253.209 268.66 253.865 269.68L268.115 291.571C268.119 291.578 268.13 291.586 268.134 291.594L311.603 358.356L265.209 388.315ZM436.809 282.925H275.849L263.255 263.585C262.411 262.281 261.458 261.089 260.439 259.98C260.087 259.597 259.697 259.277 259.325 258.917C258.63 258.246 257.931 257.581 257.177 256.995C256.661 256.593 256.122 256.249 255.583 255.89C254.931 255.456 254.278 255.031 253.595 254.659C252.935 254.296 252.259 253.98 251.571 253.675C250.993 253.421 250.411 253.183 249.814 252.972C249.001 252.679 248.185 252.421 247.345 252.21C246.884 252.093 246.419 252.007 245.95 251.917C244.982 251.726 244.013 251.562 243.025 251.48C242.728 251.456 242.427 251.464 242.126 251.449C240.993 251.394 239.861 251.37 238.724 251.464C238.712 251.464 238.697 251.468 238.685 251.468C237.321 251.581 235.966 251.769 234.618 252.105L215.145 222.125C216.063 221.293 216.872 220.383 217.759 219.527C219.075 218.258 220.384 216.988 221.638 215.672C223.063 214.176 224.419 212.64 225.763 211.09C226.938 209.73 228.11 208.375 229.22 206.976C230.493 205.371 231.688 203.726 232.872 202.074C233.903 200.64 234.934 199.211 235.899 197.742C237.016 196.039 238.048 194.297 239.075 192.551C239.958 191.051 240.856 189.558 241.677 188.031C242.634 186.242 243.497 184.414 244.368 182.582C245.106 181.027 245.868 179.488 246.54 177.91C247.337 176.039 248.028 174.137 248.735 172.234C249.325 170.64 249.95 169.058 250.473 167.445C251.102 165.511 251.622 163.551 252.157 161.593C252.606 159.961 253.091 158.343 253.473 156.699C253.934 154.718 254.27 152.711 254.634 150.711C254.934 149.058 255.286 147.418 255.52 145.754C255.809 143.726 255.966 141.683 256.153 139.64C256.309 137.98 256.52 136.328 256.614 134.66C256.727 132.586 256.696 130.508 256.708 128.429C256.716 126.785 256.794 125.148 256.739 123.504C256.669 121.347 256.442 119.199 256.263 117.047C256.13 115.48 256.079 113.91 255.888 112.343C255.595 109.929 255.13 107.531 254.696 105.129C254.462 103.836 254.321 102.535 254.044 101.246C253.27 97.6014 252.329 93.9803 251.227 90.3939C250.782 88.9408 250.192 87.5189 249.692 86.0736C248.946 83.9213 248.247 81.7611 247.376 79.6361C246.747 78.097 245.974 76.597 245.278 75.0736C244.372 73.0892 243.516 71.0892 242.501 69.14C241.712 67.6244 240.786 66.1556 239.934 64.6595C238.966 62.9642 238.075 61.2376 237.02 59.5736H436.79L436.809 282.925Z" fill="black"/>
<path d="M190.048 208.701C190.349 208.502 190.61 208.26 190.903 208.045C191.524 207.569 192.157 207.108 192.766 206.619C192.989 206.44 193.239 206.272 193.454 206.092C194.778 205.022 196.095 203.948 197.145 202.944C198.059 202.158 198.907 201.377 199.657 200.627C200.876 199.467 202.036 198.307 203.247 197.033C204.294 195.901 205.282 194.748 206.262 193.592C206.403 193.428 206.552 193.268 206.692 193.1C206.891 192.858 207.13 192.627 207.321 192.381C207.688 191.994 207.927 191.686 208.052 191.51C209.231 190.084 210.345 188.6 211.372 187.151C211.723 186.666 211.985 186.26 212.305 185.799C212.485 185.541 212.661 185.287 212.841 185.029C214.138 183.147 215.282 181.401 216.122 179.912C216.579 179.209 216.903 178.549 217.302 177.858C217.552 177.416 217.813 176.986 218.055 176.541C218.235 176.205 218.485 175.838 218.645 175.51C219.399 174.123 220.091 172.737 220.567 171.666C221.184 170.502 221.735 169.268 222.048 168.424C222.216 168.041 222.356 167.65 222.516 167.264C223.067 166.01 223.61 164.733 224.001 163.6C224.45 162.451 224.891 161.24 225.181 160.307C225.602 159.186 225.95 158.064 226.134 157.283C226.88 154.936 227.54 152.412 228.274 149.1C228.278 149.088 228.278 149.076 228.282 149.064C229.712 142.416 230.466 135.732 230.563 129.087C230.86 109.161 225.231 89.5835 214.063 72.4745C209.716 65.7011 204.329 59.3065 198.083 53.4945C197.88 53.3031 197.646 53.1429 197.443 52.9554C196.232 51.8265 194.997 50.7171 193.763 49.6898C192.978 49.0297 192.122 48.4437 191.31 47.807C190.38 47.0805 189.454 46.3422 188.493 45.6429C186.216 43.9945 183.884 42.4398 181.493 41.0101C181.064 40.7484 180.685 40.4398 180.247 40.1859C179.677 39.8499 179.068 39.5023 178.896 39.4476C166.974 32.6546 153.416 28.2676 139.701 26.7596C139.607 26.7479 139.486 26.744 139.365 26.7362C116.81 24.2557 94.7748 29.1698 75.5948 40.9162L72.7198 42.6662C60.2938 50.6584 49.9968 61.0452 42.1068 73.5412L40.6537 75.8732C33.0951 88.5022 28.3877 102.904 26.8997 117.631C26.8216 118.373 26.7122 119.108 26.6536 119.854C25.4427 134.854 27.7356 150.315 33.2708 164.549C35.7435 170.998 38.9427 177.237 42.7708 183.072C51.47 196.427 62.7478 207.232 76.2788 215.181C92.3258 224.669 110.099 229.56 128.256 229.56C132.053 229.56 135.865 229.345 139.682 228.915C155.213 227.204 170.502 221.72 183.87 213.067C186.284 211.528 188.491 209.966 190.05 208.7L190.048 208.701ZM50.1677 81.8314L51.6325 79.5423C58.5309 68.5263 67.6635 59.3083 78.6365 52.2223L81.4177 50.5387C95.6407 41.8356 111.574 37.3507 128.008 37.3507C131.43 37.3507 134.871 37.546 138.328 37.9366C138.421 37.9483 138.543 37.9562 138.668 37.9601C150.816 39.3312 162.816 43.214 173.422 49.2221C173.855 49.4642 174.285 49.6986 174.812 50.0228C175.461 50.4018 176.058 50.8353 176.695 51.2298C178.437 52.3118 180.16 53.429 181.82 54.6321C182.757 55.3079 183.652 56.0227 184.554 56.7298C186.343 58.14 188.109 59.5814 189.785 61.1243C190.008 61.3314 190.226 61.5032 190.449 61.7142C196.023 66.8587 200.797 72.5382 204.672 78.6522C214.598 93.8472 219.61 111.23 219.36 128.929C219.274 134.824 218.602 140.757 217.337 146.652C216.083 152.527 214.27 158.191 211.946 163.59C211.923 163.641 211.907 163.68 211.883 163.731C209.587 169.036 206.778 174.079 203.52 178.813C203.415 178.969 203.305 179.121 203.196 179.282C201.594 181.575 199.887 183.801 198.071 185.942C197.997 186.032 197.915 186.114 197.84 186.203C192.145 192.86 185.434 198.734 177.832 203.625C165.941 211.305 152.324 216.184 138.457 217.738C118.828 219.949 99.2774 215.723 81.9494 205.5C69.8904 198.379 59.8634 188.758 52.1254 176.859C48.8012 171.824 45.977 166.32 43.7309 160.464C38.7856 147.839 36.7465 134.081 37.8325 120.671C37.8794 120.082 38.0161 119.507 38.0747 118.918C39.4302 105.754 43.5669 92.9096 50.1687 81.8316L50.1677 81.8314Z" fill="black"/>
<path d="M265.158 165.441C265.158 166.93 265.748 168.355 266.802 169.406L290.032 192.582C291.122 193.672 292.556 194.219 293.985 194.219C295.415 194.219 296.849 193.676 297.938 192.582L321.809 168.77L345.684 192.582C347.868 194.766 351.411 194.766 353.591 192.582L376.821 169.406C377.875 168.355 378.465 166.93 378.465 165.441C378.465 163.953 377.875 162.527 376.821 161.477L352.973 137.684L376.821 113.891C377.875 112.84 378.465 111.414 378.465 109.926C378.465 108.438 377.875 107.012 376.821 105.961L353.591 82.785C351.407 80.6014 347.864 80.6014 345.684 82.785L321.809 106.597L297.938 82.785C295.755 80.6014 292.212 80.6014 290.032 82.785L266.802 105.961C265.748 107.012 265.158 108.438 265.158 109.926C265.158 111.414 265.748 112.84 266.802 113.891L290.65 137.684L266.802 161.477C265.748 162.527 265.158 163.953 265.158 165.441V165.441ZM302.537 141.652C303.591 140.602 304.181 139.176 304.181 137.688C304.181 136.199 303.591 134.773 302.537 133.723L278.689 109.93L293.99 94.6638L317.861 118.476C320.044 120.659 323.587 120.659 325.767 118.476L349.642 94.6638L364.943 109.93L341.095 133.723C340.04 134.774 339.45 136.199 339.45 137.688C339.45 139.176 340.04 140.602 341.095 141.652L364.943 165.445L349.642 180.711L325.767 156.899C324.677 155.81 323.244 155.263 321.814 155.263C320.384 155.263 318.951 155.806 317.861 156.899L293.99 180.711L278.689 165.445L302.537 141.652Z" fill="black"/>
<path d="M66.5078 158.441C66.5078 159.93 67.1016 161.355 68.1523 162.406L93.7973 187.984C95.9809 190.168 99.5239 190.168 101.704 187.984L128.462 161.293L155.216 187.984C156.305 189.074 157.739 189.621 159.169 189.621C160.598 189.621 162.032 189.078 163.122 187.984L188.767 162.406C189.821 161.355 190.411 159.93 190.411 158.441C190.411 156.953 189.821 155.527 188.767 154.477L162.033 127.801L188.771 101.129C189.825 100.078 190.415 98.652 190.415 97.1638C190.415 95.6755 189.825 94.2496 188.771 93.1989L163.126 67.6169C160.942 65.4333 157.399 65.4333 155.22 67.6169L128.466 94.308L101.708 67.6169C99.5239 65.4333 95.9809 65.4333 93.8013 67.6169L68.1563 93.1989C67.1016 94.2497 66.5118 95.6756 66.5118 97.1638C66.5118 98.6521 67.1017 100.078 68.1563 101.129L94.8943 127.801L68.1563 154.477C67.0977 155.523 66.5079 156.953 66.5079 158.441H66.5078ZM106.774 131.765C107.829 130.715 108.418 129.289 108.418 127.801C108.418 126.312 107.828 124.886 106.774 123.836L80.0358 97.1638L97.7508 79.4957L124.509 106.187C126.692 108.37 130.235 108.37 132.415 106.187L159.169 79.4957L176.884 97.1638L150.146 123.836C149.091 124.887 148.502 126.312 148.502 127.801C148.502 129.289 149.091 130.715 150.146 131.765L176.884 158.441L159.169 176.109L132.415 149.418C130.231 147.235 126.688 147.235 124.509 149.418L97.7508 176.109L80.0358 158.441L106.774 131.765Z" fill="black"/>
<path d="M374.268 210.301H300.038C296.944 210.301 294.436 212.809 294.436 215.903C294.436 218.997 296.944 221.505 300.038 221.505H374.272C377.365 221.505 379.873 218.997 379.873 215.903C379.869 212.809 377.362 210.301 374.268 210.301H374.268Z" fill="black"/>
<path d="M270.058 261.371H374.968C378.061 261.371 380.569 258.864 380.569 255.77C380.569 252.676 378.061 250.168 374.968 250.168L270.058 250.172C266.964 250.172 264.456 252.68 264.456 255.774C264.46 258.864 266.968 261.371 270.058 261.371V261.371Z" fill="black"/>
<path d="M367.488 32.3714C368.16 32.6487 368.886 32.8206 369.617 32.8206C370.007 32.8206 370.343 32.762 370.734 32.7073C371.07 32.6487 371.406 32.5394 371.742 32.3714C372.078 32.2581 372.414 32.0901 372.75 31.8675C373.027 31.6448 373.308 31.4222 373.589 31.1995C374.597 30.137 375.214 28.68 375.214 27.2229C375.214 26.8284 375.156 26.4924 375.101 26.1018C375.043 25.7659 374.933 25.4299 374.765 25.094C374.652 24.762 374.484 24.426 374.261 24.0862C374.093 23.805 373.816 23.5237 373.593 23.2464C372.023 21.7347 369.562 21.2269 367.488 22.0667C366.82 22.3479 366.199 22.7385 365.644 23.2464C365.421 23.5237 365.195 23.805 364.972 24.0862C364.75 24.4221 364.578 24.7581 364.468 25.094C364.3 25.43 364.191 25.7659 364.136 26.1018C364.078 26.4924 364.023 26.8284 364.023 27.2229C364.023 28.676 364.64 30.1331 365.648 31.1995C366.203 31.6995 366.82 32.0901 367.488 32.3714L367.488 32.3714Z" fill="black"/>
<path d="M392.018 32.8214C392.744 32.8214 393.471 32.6534 394.147 32.3721C394.873 32.0909 395.436 31.7003 395.994 31.1963C396.217 30.9151 396.443 30.6338 396.662 30.3565C396.885 30.0206 397.057 29.6846 397.166 29.3487C397.334 29.0128 397.443 28.6768 397.502 28.3409C397.557 27.9503 397.615 27.6143 397.615 27.2237C397.615 26.4932 397.502 25.7667 397.166 25.0948C396.885 24.4268 396.494 23.8057 395.99 23.251C395.428 22.7471 394.815 22.3526 394.143 22.0713C392.068 21.1768 389.607 21.6807 388.041 23.251C387.537 23.8096 387.143 24.4268 386.861 25.0948C386.584 25.7667 386.416 26.4932 386.416 27.2237C386.416 28.6768 387.033 30.1339 388.041 31.2003C389.107 32.2042 390.56 32.8214 392.018 32.8214L392.018 32.8214Z" fill="black"/>
<path d="M411.288 31.8614C411.624 32.0841 411.959 32.2559 412.295 32.3653C412.631 32.5333 412.967 32.6426 413.303 32.7012C413.694 32.7559 414.088 32.8145 414.424 32.8145C414.76 32.8145 415.151 32.7559 415.542 32.7012C415.877 32.6427 416.213 32.5333 416.549 32.3653C416.885 32.252 417.221 32.0841 417.557 31.8614C417.834 31.6387 418.116 31.4161 418.397 31.1934C419.405 30.1309 420.022 28.6739 420.022 27.2168C420.022 26.4864 419.854 25.7598 419.573 25.0879C419.292 24.3614 418.901 23.7988 418.397 23.2441C416.323 21.1699 412.514 21.1699 410.444 23.2441C409.94 23.8027 409.545 24.4199 409.264 25.0879C408.987 25.7598 408.819 26.4863 408.819 27.2168C408.819 28.6699 409.436 30.127 410.444 31.1934C410.725 31.4161 411.002 31.6426 411.288 31.8614H411.288Z" fill="black"/>
</svg>
