<?xml version="1.0" encoding="utf-8"?>
<svg version="1.1" xmlns="http://www.w3.org/2000/svg" xmlns:xlink="http://www.w3.org/1999/xlink" x="0px" y="0px" viewBox="0 0 300 300" style="enable-background:new 0 0 300 300;" xml:space="preserve">
	<style type="text/css">
	@keyframes dots {
		0%   {
			transform: rotate(50deg)
		}
		30%   {
			transform: rotate(60deg)
		}
		100% {
			transform: rotate(410deg)
		}
	}

	@keyframes body {
		0%   {
			transform: rotate(-20deg) ;
		}
		30% {
			transform: rotate(0deg) translateY(0px); 
		}
		60% {
			transform: rotate(-20deg) ;
		}
		100% {
			transform: rotate(-20deg) ;
		}
	}

	@keyframes arm {
		0%   {
			transform: rotate(0deg) ;
		}
		30% {
			transform: rotate(-60deg);
		}
		60% {
			transform: rotate(0deg) ;
		}
		100% {
			transform: rotate(0deg) ;
		}
	}

	@keyframes externalArm {
		0%   {
			transform: rotate(0deg) ;
		}
		30% {
			transform: rotate(20deg);
		}
		60% {
			transform: rotate(0deg) ;
		}
		100% {
			transform: rotate(0deg) ;
		}
	}

	.arm {
		transform-origin: 60% 26%;
		animation-name: arm;
		animation-duration: 1.2s;
		animation-iteration-count: infinite;
		animation-timing-function: linear;
		
	}

	.body {
		transform-origin: 40% 40%;
		animation-name: body;
		animation-duration: 1.2s;
		animation-iteration-count: infinite;
		animation-timing-function: linear;
	}

	.loader {
		transform-origin: 41% 69%;
		animation-name: dots;
		animation-duration: 1.2s;
		animation-iteration-count: infinite;
		animation-timing-function: linear;
	}

	.externalArm {
		transform-origin: 40% 10%;
		animation-name: externalArm;
		animation-duration: 1.2s;
		animation-iteration-count: infinite;
		animation-timing-function: linear;

</style>
	<g>
		<g class="body">
			<path fill="#232323" d="M256.2,33.6c0,15.8-12.8,28.6-28.6,28.6S199,49.4,199,33.6S211.8,5,227.6,5S256.2,17.8,256.2,33.6z" />
			<g class="arm">
				<path fill="#232323" d="M194.7,56c8.3,5,10.9,15.8,5.9,24c-5,8.3-15.8,10.9-24,5.9L154.1,72l-23.9-14.3L116.4,48
				c-6.7-6.7-6.7-17.5,0-24.2s15-6.6,24.2,0L194.7,56z" />
				<path class="externalArm" fill="#232323" d="M129.2,57.7l-27.1,24.2c-3.7,3.4-7.9,6.1-13.2,6.1c-9.5-0.1-17.1-7.8-17-17.2c0-4.7,2-9,5.1-12.1l37.7-34.2
				l1-0.7c6.8-6.6,17.6-6.4,24.2,0.4s6.4,17.6-0.4,24.2L129.2,57.7z" />
			</g>
			<path fill="#232323" d="M220.9,92.6l-43.4,72.9l-54.9-32.6L166,60c5.1-8.6,16.2-11.4,24.8-6.3l23.8,14.2C223.2,72.9,226,84,220.9,92.6
			" />
		</g>
		<path fill="#232323" d="M240.4,130.9c9.4-0.5,17.4,6.7,17.9,16.1l-6.8,90.1l0,0c0,9.5-7.7,17.2-17.2,17.2s-17.2-7.7-17.2-17.2
		l5.3-70.6l-21.3,1.2l-21.7,0.9c-9.4,0.5-17.4-6.7-17.9-16.1s6.7-17.4,16.1-17.9L240.4,130.9z" />
		<path fill="#232323" d="M125.7,117.2c-23.4,0-44.7,9.1-60.6,23.8c-17.4,16.2-28.3,39.4-28.3,65.1c0,49.1,39.8,88.9,88.9,88.9
		s88.9-39.8,88.9-88.9S174.8,117.2,125.7,117.2z M125.7,265C93.8,265,68,239.2,68,207.4c0-12.5,4-24.2,10.8-33.6
		c2.5-3.5,5.4-6.8,8.7-9.6c10.2-9,23.6-14.5,38.2-14.5c31.9,0,57.7,25.8,57.7,57.7C183.4,239.2,157.5,265,125.7,265z" />
	</g>
	<path fill="#686868" class="loader" d="M135.7,126.7c4.1,0.6,6.9,4.4,6.3,8.5c-0.6,4.1-4.4,6.9-8.5,6.3l-1.5-0.1c-6.3-0.5-12.8,0.1-19.3,1.5
	c-6.2,1.3-12.1,3.2-17.5,6l-1.5,0.9c-3.5,2.2-8.1,1.2-10.3-2.3c-2.2-3.5-1.2-8.1,2.3-10.3l1-0.7c7-3.9,14.7-6.5,23-8.3
	s16.5-2.4,24.5-1.7L135.7,126.7z" />
</svg>
